PathFileType	4	(X/Y/Z)	Patient4_TMGait_0pt6_02_left_19.trc.trc
DataRate	CameraRate	NumFrames	NumMarkers	Units	OrigDataRate	OrigDataStartFrame	OrigNumFrames
80.924855491329	80.924855491329	4	33	mm	80.924855491329	71	       141
Frame#	Time	Sacral			L.Shoulder			Chest			R.Shoulder			Neck			R.ASIS			L.ASIS			R.Thigh.Superior			R.Thigh.Lateral			R.Thigh.Inferior			R.Patella			L.Thigh.Superior			L.Thigh.Lateral			L.Thigh.Inferior			L.Patella			L.Shank.Superior			L.Shank.Lateral			L.Shank.Inferior			R.Shank.Superior			R.Shank.Lateral			R.Shank.Inferior			R.Heel			R.Midfoot.Superior			R.Midfoot.Lateral			R.Toe			L.Heel			L.Midfoot.Lateral			L.Midfoot.Superior			L.Toe			L.Elbow			L.Wrist			R.Elbow			R.Wrist			
		X1	Y1	Z1	X2	Y2	Z2	X3	Y3	Z3	X4	Y4	Z4	X5	Y5	Z5	X6	Y6	Z6	X7	Y7	Z7	X8	Y8	Z8	X9	Y9	Z9	X10	Y10	Z10	X11	Y11	Z11	X12	Y12	Z12	X13	Y13	Z13	X14	Y14	Z14	X15	Y15	Z15	X16	Y16	Z16	X17	Y17	Z17	X18	Y18	Z18	X19	Y19	Z19	X20	Y20	Z20	X21	Y21	Z21	X22	Y22	Z22	X23	Y23	Z23	X24	Y24	Z24	X25	Y25	Z25	X26	Y26	Z26	X27	Y27	Z27	X28	Y28	Z28	X29	Y29	Z29	X30	Y30	Z30	X31	Y31	Z31	X32	Y32	Z32	X33	Y33	Z33	

71	24.195000000000	774.856657098717	987.802744796820	445.165784310592	952.829013899895	1407.525389398044	254.151603021601	1047.869003160065	1346.051499077538	421.298966567599	958.072953600313	1433.854129150729	585.323156706222	948.212023894036	1476.011650351160	400.701770697170	1000.057167438534	919.588304047648	563.870111127684	987.260159715239	952.294878661157	288.289246984716	1075.803522472701	756.929378049416	535.758431188672	1039.058593013982	630.697503110359	608.248742600272	1132.524558177185	600.873811793316	530.053718263491	1170.830931622417	520.533806690974	545.993644353596	982.281323936080	724.310240932585	310.954579972955	856.569859728202	634.868847787793	255.474983703602	914.156662774198	538.782900941677	316.995204880130	896.373501573259	473.289337246307	327.771242653834	861.509017796854	408.551824636730	322.381303391319	755.380789102418	305.075652083575	278.447698059407	797.485398738317	190.285014998131	352.028153329586	1162.616007207946	431.781371311537	552.908753516428	1117.153064091455	312.316067730431	610.729743029767	1196.009362582103	234.163592737162	560.183526033394	1121.522379681143	42.627484075626	523.902198238457	1276.751325532542	127.339470847631	572.086590030182	1202.709486175850	45.573278502645	600.703901259449	1402.277299396098	98.305997230997	601.329009232207	660.128987558965	39.990949376109	406.909172220255	730.772317332047	34.889899818601	323.465813998363	815.444655802695	95.574719278728	345.930431941359	942.456677382741	42.233693040747	314.317837376886	1006.695550153730	1088.226731721380	89.388884180606	1257.091796365867	1058.148100785754	136.001701624489	803.973970333376	1139.844758557097	722.386807840011	774.547676151281	879.613566425028	740.279849132228	
72	24.207357142857	778.339866760493	985.644863785369	447.700536265413	953.667842428383	1405.540030653322	255.698555310701	1049.421960517407	1344.761874791207	422.682060426948	959.569829973334	1432.607816922622	586.764522458908	949.083789600435	1474.257786622224	402.104143134760	1004.433801322326	917.233824500165	564.908975916111	990.165706883593	950.904053556609	289.404601547534	1079.666293444031	753.671120018778	536.385273239894	1041.137169821991	627.436277563340	607.970215509983	1134.357557445060	597.294040043119	529.728884296817	1171.621023697359	516.961283763651	544.738261893138	983.591141448421	722.408934854616	311.461576022047	856.781979507639	633.992387455186	256.512255570367	913.764473218326	537.232911321827	317.623979885724	895.249176458655	471.521068612359	328.504958308624	859.480081378737	407.177220379871	322.930700611965	751.517154595765	305.416259698315	279.125371611450	791.841240485993	189.754718593478	352.202378487485	1163.421066672450	428.003999928787	551.816035859272	1117.750940483234	308.711348030442	609.556958131736	1196.017686822250	230.451584056121	558.645417406810	1119.879477824909	41.140110512373	522.808020488196	1276.374683646860	123.071237896049	569.874602556257	1201.051893293654	43.413898742952	599.523220970072	1401.364093280254	91.955736366828	599.120597342460	652.745087798836	40.485110841549	406.718393225275	723.446587916671	35.036682192977	323.417672325368	808.261915468191	95.579212133633	345.865111644976	935.140094879353	41.782715808974	314.238548161675	1009.475939137864	1086.813571094476	90.854622309303	1260.268275274808	1063.149076060682	137.977378430585	804.218029780607	1140.421861125660	725.070833036627	774.406971399778	880.053858475413	742.035531392934	
73	24.219714285714	781.843697606859	983.779704459159	450.425451219477	954.654026537456	1403.779133085486	257.386419203882	1051.195523606371	1343.649304914389	424.166882482438	961.346004864929	1431.460553200326	588.375398248654	950.164530285771	1472.708672825203	403.696602440757	1008.904343953300	915.217631056737	566.011904209499	992.923863035628	949.383922888153	290.753006172727	1083.962532905872	750.985070880268	536.845641446340	1043.888503060302	624.839256021379	607.715460484898	1136.685895077772	594.428202314561	529.248788168678	1172.935338841244	513.810295981761	543.449583723727	985.094802707226	720.581834483215	312.190229977579	857.195031620196	633.175824251239	257.808062842531	913.657715463001	535.736912138092	318.443950912582	894.441258930102	469.742265621944	329.402844160352	857.710498740073	405.842043213618	323.630094256435	747.839280561172	305.923597623759	279.947670186084	786.298805481538	189.330107587038	352.422383239215	1164.347237951624	424.463525140251	550.728400322120	1117.960296971130	305.587313615472	608.523779093200	1194.996744292723	226.782989221605	557.074346145604	1115.880732596427	40.287804702146	521.869524450641	1274.208841492910	118.397364299327	567.441984639798	1197.164784396554	41.459033627536	598.408441357214	1398.548989396627	84.479680909820	596.605958120353	645.374325156056	41.204198151678	406.475649887440	716.150542396109	35.264415526574	323.349901046653	801.164355810687	95.629537293496	345.749400719485	927.855043790437	41.317069628142	314.145641697726	1011.778077419803	1085.288375476100	92.688175186907	1262.849872422877	1066.954842964165	139.971078891529	805.441794677802	1140.582811971429	727.810010854941	775.680289088228	880.027604580151	743.910113208687	
74	24.232071428571	785.333992453800	982.274771263797	453.319459567459	955.815155334412	1402.314183868944	259.206891843747	1053.206125713118	1342.766720836411	425.738938227158	963.438869207221	1430.470856995356	590.145456497343	951.502448029592	1471.431802823400	405.468336150512	1013.408252452010	913.617967335945	567.191735157066	995.507657853601	947.808929649505	292.333442988244	1088.578715821510	748.956673510600	537.161491654170	1047.252427248289	622.986627271149	607.549675617715	1139.460303311269	592.348840975189	528.687620290738	1174.724679599328	511.176908049098	542.224423539861	986.749075042707	718.911393346342	313.147497064325	857.794358685259	632.472742824080	259.356398572010	913.855138679694	534.354183338866	319.438411328659	893.996080846492	467.987951715900	330.410945005739	856.207071238822	404.596080206647	324.454184531188	744.353625851975	306.661336004235	280.906675969332	780.885298859580	189.071015873147	352.663012112147	1165.431713154341	421.306636448393	549.740198603460	1117.965331810733	303.035116410918	607.740868665353	1193.229901643731	223.335721190627	555.579365686093	1110.136840065280	39.960485852881	521.129056463041	1270.643602715253	113.664863225300	564.991294573076	1191.626341914004	39.778398427433	597.437719563964	1394.275361778882	76.552079541021	594.012767890421	638.031223728128	42.234246605100	406.180040003985	708.890613778176	35.610028258160	323.258870492715	794.188779476379	95.736561836196	345.560843478371	920.605852735682	40.845185705890	314.042355431226	1013.562192859878	1083.688901240003	94.894876376522	1264.859597038785	1069.531354372226	141.981711020352	807.694967560664	1140.348603262592	730.598626595369	778.403892598719	879.567487483689	745.904676641888	
